<svg width="28" height="33" viewBox="0 0 28 33" fill="none" xmlns="http://www.w3.org/2000/svg">
<path d="M14 0C11.0921 0 8.30332 1.27205 6.24712 3.5363C4.19093 5.80056 3.03578 8.87155 3.03578 12.0737V18.1588C3.036 18.4264 2.9797 18.6903 2.87131 18.9298L0.181948 24.8511C0.0505752 25.1404 -0.0114578 25.4618 0.00174063 25.785C0.0149391 26.1081 0.102931 26.4221 0.257358 26.6972C0.411786 26.9724 0.627522 27.1995 0.884076 27.3569C1.14063 27.5144 1.42949 27.597 1.7232 27.597H26.2768C26.5705 27.597 26.8594 27.5144 27.1159 27.3569C27.3725 27.1995 27.5882 26.9724 27.7426 26.6972C27.8971 26.4221 27.9851 26.1081 27.9983 25.785C28.0115 25.4618 27.9494 25.1404 27.8181 24.8511L25.1303 18.9298C25.0213 18.6905 24.9645 18.4265 24.9642 18.1588V12.0737C24.9642 8.87155 23.8091 5.80056 21.7529 3.5363C19.6967 1.27205 16.9079 0 14 0ZM14 32.7714C13.0279 32.772 12.0795 32.4405 11.2856 31.8227C10.4917 31.2049 9.89137 30.3311 9.56732 29.3218H18.4327C18.1086 30.3311 17.5083 31.2049 16.7144 31.8227C15.9205 32.4405 14.9721 32.772 14 32.7714Z" fill="#06305D"/>
</svg>
