<svg width="63" height="63" viewBox="0 0 63 63" fill="none" xmlns="http://www.w3.org/2000/svg">
<ellipse cx="31.8148" cy="43.785" rx="7.245" ry="7.245" fill="#FFA712"/>
<path fill-rule="evenodd" clip-rule="evenodd" d="M21.6563 13.125C21.6563 10.5143 22.6934 8.01048 24.5394 6.16442C26.3855 4.31836 28.8893 3.28125 31.5 3.28125C34.1107 3.28125 36.6145 4.31836 38.4606 6.16442C40.3066 8.01048 41.3437 10.5143 41.3437 13.125V29.7885C41.3437 29.9775 41.4487 30.261 41.7585 30.5077C44.4108 32.6328 46.3376 35.5291 47.2728 38.7965C48.2081 42.0638 48.1055 45.541 46.9794 48.7476C45.8532 51.9541 43.759 54.7318 40.9862 56.6969C38.2133 58.662 34.8986 59.7174 31.5 59.7174C28.1014 59.7174 24.7867 58.662 22.0138 56.6969C19.241 54.7318 17.1468 51.9541 16.0206 48.7476C14.8945 45.541 14.7919 42.0638 15.7272 38.7965C16.6624 35.5291 18.5892 32.6328 21.2415 30.5077C21.5513 30.2584 21.6563 29.9775 21.6563 29.7885V13.125ZM31.5 7.21875C29.9336 7.21875 28.4313 7.84101 27.3237 8.94865C26.216 10.0563 25.5938 11.5586 25.5938 13.125V29.7885C25.5938 31.3714 24.78 32.718 23.7037 33.579C21.6877 35.1938 20.2229 37.395 19.5117 39.8782C18.8006 42.3615 18.8783 45.0043 19.734 47.4416C20.5898 49.8788 22.1813 51.9901 24.2888 53.4837C26.3963 54.9773 28.9156 55.7796 31.4987 55.7796C34.0818 55.7796 36.6011 54.9773 38.7086 53.4837C40.816 51.9901 42.4076 49.8788 43.2633 47.4416C44.1191 45.0043 44.1968 42.3615 43.4856 39.8782C42.7745 37.395 41.3097 35.1938 39.2936 33.579C38.22 32.718 37.4062 31.374 37.4062 29.7885V13.125C37.4062 11.5586 36.784 10.0563 35.6763 8.94865C34.5687 7.84101 33.0664 7.21875 31.5 7.21875ZM31.5 11.1562C32.0221 11.1562 32.5229 11.3637 32.8921 11.7329C33.2613 12.1021 33.4688 12.6029 33.4688 13.125V35.0096C35.504 35.4922 37.2912 36.7054 38.4908 38.4189C39.6905 40.1324 40.219 42.2268 39.9761 44.3044C39.7332 46.3819 38.7357 48.2979 37.1731 49.6884C35.6106 51.079 33.5917 51.8472 31.5 51.8472C29.4083 51.8472 27.3894 51.079 25.8269 49.6884C24.2643 48.2979 23.2668 46.3819 23.0239 44.3044C22.781 42.2268 23.3095 40.1324 24.5091 38.4189C25.7088 36.7054 27.496 35.4922 29.5312 35.0096V13.125C29.5312 12.6029 29.7387 12.1021 30.1079 11.7329C30.4771 11.3637 30.9779 11.1562 31.5 11.1562ZM31.5 38.7187C30.2817 38.7187 29.1132 39.2027 28.2517 40.0642C27.3902 40.9257 26.9062 42.0942 26.9062 43.3125C26.9062 44.5308 27.3902 45.6993 28.2517 46.5608C29.1132 47.4223 30.2817 47.9062 31.5 47.9062C32.7183 47.9062 33.8868 47.4223 34.7483 46.5608C35.6098 45.6993 36.0937 44.5308 36.0937 43.3125C36.0937 42.0942 35.6098 40.9257 34.7483 40.0642C33.8868 39.2027 32.7183 38.7187 31.5 38.7187Z" fill="#1F4F82"/>
</svg>
