<svg width="15" height="15" viewBox="0 0 15 15" fill="none" xmlns="http://www.w3.org/2000/svg">
<path fill-rule="evenodd" clip-rule="evenodd" d="M0 7.08333C0 3.17121 3.17121 0 7.08333 0C10.9955 0 14.1667 3.17121 14.1667 7.08333C14.1667 10.9955 10.9955 14.1667 7.08333 14.1667C3.17121 14.1667 0 10.9955 0 7.08333ZM7.79167 3.54167C7.79167 3.3538 7.71704 3.17364 7.5842 3.0408C7.45136 2.90796 7.27119 2.83333 7.08333 2.83333C6.89547 2.83333 6.7153 2.90796 6.58247 3.0408C6.44963 3.17364 6.375 3.3538 6.375 3.54167V6.20783C6.37501 6.60241 6.48489 6.98919 6.69231 7.32485C6.89974 7.66051 7.19652 7.93178 7.54942 8.10829L9.60004 9.13325C9.68354 9.17828 9.77523 9.20607 9.86967 9.21499C9.96411 9.2239 10.0594 9.21376 10.1498 9.18515C10.2403 9.15655 10.3241 9.11007 10.3962 9.04847C10.4683 8.98687 10.5274 8.91141 10.5698 8.82657C10.6122 8.74172 10.6372 8.64921 10.6432 8.55454C10.6492 8.45987 10.6361 8.36496 10.6047 8.27544C10.5733 8.18592 10.5243 8.10361 10.4605 8.03341C10.3967 7.9632 10.3194 7.90653 10.2333 7.86675L8.18338 6.84108C8.06573 6.7823 7.96678 6.69192 7.8976 6.58008C7.82842 6.46824 7.79174 6.33934 7.79167 6.20783V3.54167Z" fill="#1F4F82"/>
</svg>
