<svg width="12" height="16" viewBox="0 0 12 16" fill="none" xmlns="http://www.w3.org/2000/svg">
<path fill-rule="evenodd" clip-rule="evenodd" d="M1.82732e-07 5.54025C0.000272828 4.47808 0.305795 3.43836 0.880188 2.54489C1.45458 1.65142 2.27364 0.941853 3.23985 0.500665C4.20606 0.0594762 5.27871 -0.0947415 6.33008 0.056374C7.38145 0.207489 8.36724 0.657571 9.17008 1.35303C9.97291 2.04849 10.559 2.96002 10.8585 3.97909C11.158 4.99817 11.1583 6.08184 10.8594 7.10109C10.5605 8.12034 9.97498 9.03222 9.17256 9.72816C8.37013 10.4241 7.38461 10.8748 6.33333 11.0265V15.0402C6.33333 15.2502 6.24993 15.4516 6.10146 15.6C5.95299 15.7485 5.75163 15.8319 5.54167 15.8319C5.3317 15.8319 5.13034 15.7485 4.98187 15.6C4.83341 15.4516 4.75 15.2502 4.75 15.0402V11.0265C3.43085 10.8361 2.2245 10.1766 1.35209 9.169C0.479686 8.16137 -0.000341922 6.87307 1.82732e-07 5.54025ZM4.7025 4.70108C4.92499 4.47832 5.22683 4.35302 5.54167 4.35275C5.75163 4.35275 5.95299 4.26934 6.10146 4.12087C6.24993 3.97241 6.33333 3.77104 6.33333 3.56108C6.33333 3.35112 6.24993 3.14975 6.10146 3.00129C5.95299 2.85282 5.75163 2.76941 5.54167 2.76941C4.8068 2.76941 4.10202 3.06134 3.58239 3.58097C3.06276 4.10061 2.77083 4.80538 2.77083 5.54025C2.77083 5.75021 2.85424 5.95157 3.00271 6.10004C3.15117 6.24851 3.35254 6.33191 3.5625 6.33191C3.77246 6.33191 3.97383 6.24851 4.12229 6.10004C4.27076 5.95157 4.35417 5.75021 4.35417 5.54025C4.35417 5.22516 4.47925 4.92275 4.7025 4.70108Z" fill="#1F4F82"/>
</svg>
