<svg width="20" height="35" viewBox="0 0 20 35" fill="none" xmlns="http://www.w3.org/2000/svg">
<path d="M12.1 19.4414C16.5069 18.4502 19.8 14.5264 19.8 9.84375C19.8 4.40918 15.3656 0 9.9 0C4.43437 0 0 4.40918 0 9.84375C0 14.5264 3.29312 18.4502 7.7 19.4414V32.8125C7.7 34.0225 8.68312 35 9.9 35C11.1169 35 12.1 34.0225 12.1 32.8125V19.4414ZM10.45 6.5625C8.32562 6.5625 6.6 8.27832 6.6 10.3906C6.6 11.2998 5.86437 12.0312 4.95 12.0312C4.03562 12.0312 3.3 11.2998 3.3 10.3906C3.3 6.4668 6.50375 3.28125 10.45 3.28125C11.3644 3.28125 12.1 4.0127 12.1 4.92188C12.1 5.83105 11.3644 6.5625 10.45 6.5625Z" fill="#2CEB72"/>
</svg>
