<svg width="35" height="31" viewBox="0 0 35 31" fill="none" xmlns="http://www.w3.org/2000/svg">
<path d="M34.2869 8.08152L14.92 30.1936C14.4675 30.7099 13.8539 31 13.2141 31C12.5743 31 11.9607 30.7099 11.5082 30.1936L0.705533 17.7943C0.25375 17.2777 0 16.5775 0 15.8474C0 15.1174 0.25375 14.4172 0.705533 13.9006L3.72218 10.4563C4.17448 9.94209 4.78678 9.65337 5.42508 9.65337C6.06339 9.65337 6.67569 9.94209 7.12798 10.4563L13.2141 20.3438L27.869 0.803821C28.3213 0.289052 28.934 0 29.5726 0C30.2113 0 30.8239 0.289052 31.2763 0.803821L34.2854 4.16885C34.5117 4.42489 34.6913 4.72955 34.814 5.06526C34.9366 5.40097 34.9999 5.76108 35 6.12483C35.0001 6.48857 34.9372 6.84875 34.8148 7.18458C34.6924 7.52042 34.513 7.82526 34.2869 8.08152Z" fill="#2CEB72"/>
</svg>
