<svg width="38" height="36" viewBox="0 0 38 36" fill="none" xmlns="http://www.w3.org/2000/svg">
<path d="M16.3 35.7V31.2C13 31.1333 10.2833 30.6666 8.15 29.8C6.05 28.9333 4.4 27.8166 3.2 26.45C2.03333 25.05 1.2 23.55 0.699997 21.95C0.23333 20.3166 -2.91318e-06 18.7333 -2.91318e-06 17.2C-2.91318e-06 15.4333 0.266664 13.7333 0.799997 12.0999C1.33333 10.4666 2.21666 9.01662 3.45 7.74995C4.68333 6.44995 6.35 5.41662 8.45 4.64995C10.55 3.84995 13.1667 3.43328 16.3 3.39995V-5.11408e-05H20.75V3.39995C23.9167 3.43328 26.55 3.83328 28.65 4.59995C30.75 5.36662 32.4 6.38328 33.6 7.64995C34.8333 8.91662 35.7167 10.3833 36.25 12.05C36.7833 13.6833 37.05 15.4 37.05 17.2C37.05 18.8 36.8 20.4166 36.3 22.05C35.8 23.6833 34.9333 25.1833 33.7 26.55C32.5 27.8833 30.8333 28.9833 28.7 29.85C26.6 30.6833 23.95 31.1333 20.75 31.2V35.7H16.3ZM16.3 27.5V7.19995C13.3 7.26662 10.9333 7.74995 9.2 8.64995C7.5 9.51662 6.3 10.6833 5.6 12.15C4.9 13.6166 4.55 15.2833 4.55 17.15C4.55 19.1166 4.93333 20.8666 5.7 22.4C6.5 23.9333 7.75 25.15 9.45 26.05C11.1833 26.9166 13.4667 27.4 16.3 27.5ZM20.75 27.5C23.65 27.4 25.95 26.9 27.65 26C29.3833 25.0666 30.6167 23.8333 31.35 22.3C32.1167 20.7666 32.5 19.05 32.5 17.15C32.5 15.2499 32.15 13.5666 31.45 12.0999C30.75 10.6333 29.55 9.46662 27.85 8.59995C26.15 7.73328 23.7833 7.26662 20.75 7.19995V27.5Z" fill="#153B63"/>
</svg>
