<svg width="35" height="28" viewBox="0 0 35 28" fill="none" xmlns="http://www.w3.org/2000/svg">
<path d="M3.47024 27.7619C2.51592 27.7619 1.69926 27.4224 1.02025 26.7434C0.34124 26.0644 0.00115675 25.2471 0 24.2917V3.47024C0 2.51592 0.340083 1.69926 1.02025 1.02025C1.70042 0.34124 2.51708 0.00115675 3.47024 0H31.2321C32.1865 0 33.0037 0.340083 33.6839 1.02025C34.364 1.70042 34.7035 2.51708 34.7024 3.47024V24.2917C34.7024 25.246 34.3629 26.0632 33.6839 26.7434C33.0049 27.4236 32.1876 27.7631 31.2321 27.7619H3.47024ZM17.3512 15.6161L31.2321 6.94048V3.47024L17.3512 12.1458L3.47024 3.47024V6.94048L17.3512 15.6161Z" fill="white"/>
</svg>
