<svg width="35" height="35" viewBox="0 0 35 35" fill="none" xmlns="http://www.w3.org/2000/svg">
<path d="M22.75 3.11988V34.6188C21.8097 34.6191 20.8754 34.4678 19.9832 34.1708L14 32.1759V0.554475C14.3441 0.624983 14.6836 0.716145 15.0168 0.827465L21.0892 2.85214C21.6249 3.02948 22.1857 3.12104 22.75 3.11988ZM26.25 2.23792L32.6585 0.102991C32.9227 0.00812536 33.2058 -0.0218123 33.4839 0.015704C33.7621 0.0532202 34.0271 0.15709 34.2567 0.318548C34.4863 0.480007 34.6737 0.694317 34.803 0.943396C34.9324 1.19248 35 1.46902 35 1.74968V29.7487C35.0001 30.123 34.8801 30.4875 34.6577 30.7886C34.4354 31.0897 34.1223 31.3116 33.7645 31.4216L26.25 33.9258V2.23792ZM10.5 0.554475V32.1759L2.3415 34.897C2.0772 34.9919 1.79394 35.0218 1.51565 34.9842C1.23735 34.9466 0.972194 34.8426 0.742569 34.681C0.512944 34.5193 0.325597 34.3047 0.196352 34.0554C0.0671074 33.8061 -0.000239192 33.5294 6.38312e-07 33.2486V5.24956C-7.21973e-05 4.87524 0.119888 4.51076 0.342264 4.20965C0.56464 3.90854 0.877712 3.68667 1.2355 3.57662L9.48325 0.825715C9.81642 0.714986 10.1559 0.624409 10.5 0.554475Z" fill="#1F4F82"/>
</svg>
