<svg width="40" height="40" viewBox="0 0 40 40" fill="none" xmlns="http://www.w3.org/2000/svg">
<path fill-rule="evenodd" clip-rule="evenodd" d="M17.9166 4.27844C18.55 3.91274 19.2685 3.72021 19.9999 3.72021C20.7313 3.72021 21.4498 3.91274 22.0833 4.27844L32.5733 10.3351C33.2067 10.7008 33.7326 11.2268 34.0983 11.8602C34.464 12.4936 34.6566 13.2121 34.6566 13.9434V26.0568C34.6566 26.7882 34.464 27.5067 34.0983 28.1401C33.7326 28.7734 33.2067 29.2994 32.5733 29.6651L22.0833 35.7218C21.4498 36.0875 20.7313 36.28 19.9999 36.28C19.2685 36.28 18.55 36.0875 17.9166 35.7218L7.42659 29.6651C6.7932 29.2994 6.26722 28.7734 5.90152 28.1401C5.53582 27.5067 5.34328 26.7882 5.34326 26.0568V13.9434C5.34328 13.2121 5.53582 12.4936 5.90152 11.8602C6.26722 11.2268 6.7932 10.7008 7.42659 10.3351L17.9166 4.27844ZM13.3649 14.2451L23.0283 8.67344L26.3633 10.5984L16.6999 16.1701L13.3649 14.2451Z" fill="#1F4F82"/>
</svg>
