<svg width="35" height="35" viewBox="0 0 35 35" fill="none" xmlns="http://www.w3.org/2000/svg">
<path d="M35 2.1V9.1C35 9.65695 34.7787 10.1911 34.3849 10.5849C33.9911 10.9788 33.457 11.2 32.9 11.2C32.343 11.2 31.8089 10.9788 31.4151 10.5849C31.0213 10.1911 30.8 9.65695 30.8 9.1V4.2H25.9C25.343 4.2 24.8089 3.97875 24.4151 3.58492C24.0213 3.1911 23.8 2.65695 23.8 2.1C23.8 1.54305 24.0213 1.0089 24.4151 0.615076C24.8089 0.221249 25.343 0 25.9 0H32.9C33.457 0 33.9911 0.221249 34.3849 0.615076C34.7787 1.0089 35 1.54305 35 2.1ZM9.1 30.8H4.2V25.9C4.2 25.343 3.97875 24.8089 3.58492 24.4151C3.1911 24.0213 2.65695 23.8 2.1 23.8C1.54305 23.8 1.0089 24.0213 0.615076 24.4151C0.221249 24.8089 0 25.343 0 25.9V32.9C0 33.457 0.221249 33.9911 0.615076 34.3849C1.0089 34.7787 1.54305 35 2.1 35H9.1C9.65695 35 10.1911 34.7787 10.5849 34.3849C10.9788 33.9911 11.2 33.457 11.2 32.9C11.2 32.343 10.9788 31.8089 10.5849 31.4151C10.1911 31.0213 9.65695 30.8 9.1 30.8ZM32.9 23.8C32.343 23.8 31.8089 24.0213 31.4151 24.4151C31.0213 24.8089 30.8 25.343 30.8 25.9V30.8H25.9C25.343 30.8 24.8089 31.0213 24.4151 31.4151C24.0213 31.8089 23.8 32.343 23.8 32.9C23.8 33.457 24.0213 33.9911 24.4151 34.3849C24.8089 34.7787 25.343 35 25.9 35H32.9C33.457 35 33.9911 34.7787 34.3849 34.3849C34.7787 33.9911 35 33.457 35 32.9V25.9C35 25.343 34.7787 24.8089 34.3849 24.4151C33.9911 24.0213 33.457 23.8 32.9 23.8ZM2.1 11.2C2.65695 11.2 3.1911 10.9788 3.58492 10.5849C3.97875 10.1911 4.2 9.65695 4.2 9.1V4.2H9.1C9.65695 4.2 10.1911 3.97875 10.5849 3.58492C10.9788 3.1911 11.2 2.65695 11.2 2.1C11.2 1.54305 10.9788 1.0089 10.5849 0.615076C10.1911 0.221249 9.65695 0 9.1 0H2.1C1.54305 0 1.0089 0.221249 0.615076 0.615076C0.221249 1.0089 0 1.54305 0 2.1V9.1C0 9.65695 0.221249 10.1911 0.615076 10.5849C1.0089 10.9788 1.54305 11.2 2.1 11.2ZM9.8 7.7H25.2C25.757 7.7 26.2911 7.92125 26.6849 8.31507C27.0787 8.7089 27.3 9.24305 27.3 9.8V25.2C27.3 25.757 27.0787 26.2911 26.6849 26.6849C26.2911 27.0787 25.757 27.3 25.2 27.3H9.8C9.24305 27.3 8.7089 27.0787 8.31507 26.6849C7.92125 26.2911 7.7 25.757 7.7 25.2V9.8C7.7 9.24305 7.92125 8.7089 8.31507 8.31507C8.7089 7.92125 9.24305 7.7 9.8 7.7ZM11.9 23.1H23.1V11.9H11.9V23.1Z" fill="#1F4F82"/>
</svg>
