<svg width="32" height="35" viewBox="0 0 32 35" fill="none" xmlns="http://www.w3.org/2000/svg">
<path d="M16.4706 30.7268H16C11.5451 30.7268 7.76471 29.2356 4.65882 26.2533C1.55294 23.271 0 19.641 0 15.3634C0 11.0857 1.55294 7.45576 4.65882 4.47346C7.76471 1.49115 11.5451 0 16 0C18.2275 0 20.3062 0.398846 22.2362 1.19654C24.1663 1.99423 25.8604 3.09377 27.3186 4.49515C28.7768 5.89653 29.9213 7.52324 30.752 9.37528C31.5827 11.2273 31.9987 13.2234 32 15.3634C32 19.4 30.8154 23.1505 28.4461 26.6148C26.0769 30.0791 23.0889 32.7903 19.4824 34.7484C19.1686 34.899 18.8549 34.9821 18.5412 34.9978C18.2275 35.0135 17.9451 34.9454 17.6941 34.7936C17.4431 34.6417 17.2235 34.4459 17.0353 34.2061C16.8471 33.9663 16.7373 33.6802 16.7059 33.3476L16.4706 30.7268ZM15.9529 25.2592C16.4863 25.2592 16.9412 25.0785 17.3176 24.717C17.6941 24.3555 17.8824 23.9187 17.8824 23.4066C17.8824 22.8945 17.6941 22.4577 17.3176 22.0962C16.9412 21.7347 16.4863 21.5539 15.9529 21.5539C15.4196 21.5539 14.9647 21.7347 14.5882 22.0962C14.2118 22.4577 14.0235 22.8945 14.0235 23.4066C14.0235 23.9187 14.2118 24.3555 14.5882 24.717C14.9647 25.0785 15.4196 25.2592 15.9529 25.2592ZM11.8588 11.5225C12.2039 11.6732 12.549 11.681 12.8941 11.546C13.2392 11.4111 13.5216 11.1924 13.7412 10.8899C14.0235 10.5284 14.3529 10.2495 14.7294 10.0531C15.1059 9.85667 15.5294 9.75907 16 9.76027C16.7529 9.76027 17.3647 9.96331 17.8353 10.3694C18.3059 10.7755 18.5412 11.2954 18.5412 11.9292C18.5412 12.3208 18.4238 12.7125 18.1892 13.1041C17.9545 13.4957 17.5385 13.9777 16.9412 14.55C16.1569 15.2128 15.5765 15.8382 15.2 16.4262C14.8235 17.0142 14.6353 17.6089 14.6353 18.2101C14.6353 18.5716 14.7689 18.8807 15.0362 19.1374C15.3035 19.394 15.6248 19.5217 16 19.5205C16.3752 19.5193 16.6889 19.3838 16.9412 19.1139C17.1934 18.844 17.3816 18.5276 17.5059 18.1649C17.6627 17.6528 17.9451 17.1859 18.3529 16.7642C18.7608 16.3424 19.1373 15.9659 19.4824 15.6345C20.1412 15.0019 20.6356 14.3693 20.9656 13.7367C21.2957 13.1041 21.4601 12.4715 21.4588 11.8388C21.4588 10.4531 20.9644 9.33853 19.9755 8.49505C18.9867 7.65157 17.6615 7.22983 16 7.22983C14.9961 7.22983 14.0706 7.4636 13.2235 7.93112C12.3765 8.39865 11.6863 9.03849 11.1529 9.85064C10.9647 10.182 10.9409 10.5061 11.0814 10.8231C11.222 11.14 11.4811 11.3731 11.8588 11.5225Z" fill="#9DC1DA"/>
</svg>
