<svg width="46" height="46" viewBox="0 0 46 46" fill="none" xmlns="http://www.w3.org/2000/svg">
<ellipse cx="23.6765" cy="31.7941" rx="4.73529" ry="4.73529" fill="#F59E0B"/>
<path d="M23.0001 42.1666C25.1842 42.167 27.3145 41.4889 29.0965 40.2262C30.8786 38.9635 32.2245 37.1784 32.9481 35.1177C33.6718 33.057 33.7375 30.8224 33.1362 28.7227C32.5349 26.623 31.2963 24.7619 29.5915 23.3967C29.3362 23.203 29.1279 22.9542 28.9822 22.6688C28.8365 22.3834 28.7571 22.0687 28.7501 21.7483V9.58325C28.7501 8.05826 28.1443 6.59572 27.066 5.51739C25.9876 4.43905 24.5251 3.83325 23.0001 3.83325C21.4751 3.83325 20.0126 4.43905 18.9342 5.51739C17.8559 6.59572 17.2501 8.05826 17.2501 9.58325V21.7503C17.2501 22.3981 16.9147 22.9923 16.4087 23.3986C14.7047 24.7641 13.4667 26.625 12.8659 28.7243C12.2651 30.8237 12.331 33.0578 13.0546 35.118C13.7781 37.1783 15.1236 38.963 16.9052 40.2256C18.6868 41.4883 20.8165 42.1665 23.0001 42.1666Z" stroke="#1F4F82" stroke-width="1.5"/>
<path d="M27.7918 31.6249C27.7918 32.8957 27.287 34.1145 26.3884 35.0131C25.4898 35.9118 24.271 36.4166 23.0002 36.4166C21.7293 36.4166 20.5106 35.9118 19.6119 35.0131C18.7133 34.1145 18.2085 32.8957 18.2085 31.6249C18.2085 30.3541 18.7133 29.1353 19.6119 28.2367C20.5106 27.3381 21.7293 26.8333 23.0002 26.8333C24.271 26.8333 25.4898 27.3381 26.3884 28.2367C27.287 29.1353 27.7918 30.3541 27.7918 31.6249Z" stroke="#1F4F82" stroke-width="1.5"/>
<path d="M23 26.8333V9.58325" stroke="#1F4F82" stroke-width="1.5" stroke-linecap="round"/>
</svg>
