<svg width="24" height="24" viewBox="0 0 24 24" fill="none" xmlns="http://www.w3.org/2000/svg">
<ellipse cx="12.3529" cy="16.5883" rx="2.47059" ry="2.47059" fill="#E0F2FE"/>
<path d="M12 22C13.1395 22.0002 14.2509 21.6464 15.1807 20.9876C16.1105 20.3288 16.8127 19.3975 17.1902 18.3223C17.5678 17.2472 17.6021 16.0813 17.2884 14.9858C16.9746 13.8903 16.3284 12.9193 15.439 12.207C15.3057 12.106 15.1971 11.9762 15.121 11.8272C15.045 11.6783 15.0036 11.5142 15 11.347V5C15 4.20435 14.6839 3.44129 14.1213 2.87868C13.5587 2.31607 12.7956 2 12 2C11.2043 2 10.4412 2.31607 9.87863 2.87868C9.31602 3.44129 8.99995 4.20435 8.99995 5V11.348C8.99995 11.686 8.82495 11.996 8.56095 12.208C7.6719 12.9204 7.02602 13.8913 6.71254 14.9867C6.39907 16.082 6.43346 17.2476 6.81098 18.3225C7.18849 19.3974 7.8905 20.3286 8.82001 20.9873C9.74952 21.6461 10.8607 21.9999 12 22Z" stroke="#153B63" stroke-width="1.5"/>
<path d="M14.5 16.5C14.5 17.163 14.2366 17.7989 13.7678 18.2678C13.2989 18.7366 12.663 19 12 19C11.337 19 10.7011 18.7366 10.2322 18.2678C9.76339 17.7989 9.5 17.163 9.5 16.5C9.5 15.837 9.76339 15.2011 10.2322 14.7322C10.7011 14.2634 11.337 14 12 14C12.663 14 13.2989 14.2634 13.7678 14.7322C14.2366 15.2011 14.5 15.837 14.5 16.5Z" stroke="#153B63" stroke-width="1.5"/>
<path d="M12 14V5" stroke="#153B63" stroke-width="1.5" stroke-linecap="round"/>
</svg>
