<svg width="70" height="70" viewBox="0 0 70 70" fill="none" xmlns="http://www.w3.org/2000/svg">
<path d="M0.000808868 34.776C0.000808868 33.902 0.322808 33.12 0.920808 32.476C1.19799 32.166 1.53864 31.9193 1.91963 31.7526C2.30061 31.5859 2.71301 31.5032 3.12881 31.51C4.00281 31.51 4.78481 31.832 5.38281 32.476C5.98081 33.12 6.30281 33.856 6.30281 34.776C6.30281 35.65 5.98081 36.386 5.38281 36.984C5.09467 37.2772 4.75103 37.5101 4.37194 37.669C3.99284 37.828 3.58588 37.9098 3.17481 37.9098C2.76373 37.9098 2.35678 37.828 1.97768 37.669C1.59859 37.5101 1.25495 37.2772 0.966809 36.984C0.654383 36.7088 0.406003 36.3685 0.239119 35.9871C0.0722345 35.6056 -0.0091061 35.1922 0.000808868 34.776ZM9.10881 34.776C9.10881 33.902 9.43081 33.12 10.0288 32.476C10.306 32.166 10.6466 31.9193 11.0276 31.7526C11.4086 31.5859 11.821 31.5032 12.2368 31.51H27.0948L16.6068 21.022C16.2955 20.7559 16.0473 20.4238 15.8802 20.0499C15.7131 19.6759 15.6313 19.2695 15.6408 18.86C15.6408 17.986 15.9628 17.25 16.6068 16.606C17.2508 15.962 17.9868 15.64 18.8608 15.64C19.7348 15.64 20.4708 15.962 21.1148 16.606L31.5568 27.048V12.282C31.5568 11.408 31.8788 10.626 32.5228 9.982C33.1668 9.338 33.9028 9.016 34.8228 9.016C35.6968 9.016 36.4328 9.338 37.0308 9.982C37.6288 10.626 37.9508 11.362 37.9508 12.282V27.14L48.4848 16.56C49.1288 15.916 49.8648 15.594 50.6928 15.594C51.5208 15.594 52.3028 15.916 52.9468 16.56C53.4988 17.204 53.7748 17.94 53.7748 18.814C53.7748 19.688 53.4988 20.424 52.9468 20.976L42.4588 31.464H57.3168C58.1448 31.464 58.8808 31.786 59.4788 32.43C60.0768 33.074 60.3988 33.81 60.3988 34.73C60.3988 35.558 60.0768 36.294 59.4788 36.892C59.1992 37.1834 58.8635 37.4151 58.492 37.5733C58.1204 37.7314 57.7206 37.8126 57.3168 37.812H42.4588L52.9928 48.346C53.5448 48.898 53.8208 49.634 53.8208 50.508C53.8208 51.382 53.5448 52.118 52.9928 52.762C52.3488 53.406 51.5668 53.728 50.7388 53.728C49.9108 53.728 49.1288 53.406 48.5308 52.762L37.9968 42.182V57.086C37.9968 57.96 37.6748 58.742 37.0768 59.34C36.4788 59.938 35.7428 60.26 34.8688 60.26C34.012 60.2624 33.1876 59.9326 32.5688 59.34C32.2576 59.0539 32.0106 58.7051 31.8441 58.3166C31.6776 57.9281 31.5954 57.5086 31.6028 57.086V42.274L21.1608 52.716C20.5168 53.36 19.7808 53.682 18.9068 53.682C18.0328 53.682 17.2968 53.36 16.6528 52.716C16.0088 52.072 15.6868 51.336 15.6868 50.462C15.6868 49.588 16.0088 48.898 16.6528 48.3L27.2328 37.766H12.3288C11.4548 37.766 10.7188 37.444 10.1208 36.846C9.7883 36.6172 9.52046 36.3064 9.34317 35.9438C9.16589 35.5812 9.08517 35.1789 9.10881 34.776ZM9.15481 57.04C9.15481 56.212 9.47681 55.43 10.1208 54.832C10.6728 54.188 11.4088 53.866 12.2828 53.866C13.1568 53.866 13.8928 54.188 14.5368 54.832C15.1808 55.476 15.5028 56.212 15.5028 57.04C15.5028 57.868 15.1808 58.65 14.5368 59.248C13.8928 59.892 13.1568 60.214 12.2828 60.214C11.4088 60.214 10.6728 59.892 10.1208 59.248C9.8108 58.9708 9.56408 58.6302 9.3974 58.2492C9.23071 57.8682 9.14798 57.4558 9.15481 57.04ZM9.15481 12.374C9.15481 11.546 9.47681 10.764 10.1208 10.166C10.6728 9.522 11.4088 9.2 12.2828 9.2C13.1568 9.2 13.8928 9.522 14.5368 10.166C15.1808 10.81 15.5028 11.546 15.5028 12.374C15.5028 13.616 15.1808 13.984 14.5368 14.628C13.8928 15.272 13.1568 15.594 12.2828 15.594C11.4088 15.594 10.6728 15.272 10.1208 14.628C9.81627 14.3367 9.57372 13.9869 9.40772 13.5996C9.24172 13.2123 9.15569 12.7954 9.15481 12.374ZM31.4648 66.24C31.4648 65.412 31.7868 64.676 32.4308 64.078C33.0748 63.48 33.8108 63.158 34.7308 63.158C35.6048 63.158 36.3408 63.48 36.9388 64.078C37.5368 64.676 37.8588 65.412 37.8588 66.24C37.8588 67.114 37.5368 67.896 36.9388 68.494C36.3408 69.092 35.6048 69.414 34.7308 69.414C33.874 69.4164 33.0496 69.0866 32.4308 68.494C32.1173 68.2098 31.8687 67.8613 31.702 67.4724C31.5352 67.0834 31.4544 66.6631 31.4648 66.24ZM31.4648 3.174C31.4648 2.3 31.7868 1.518 32.4308 0.920001C33.0748 0.322001 33.8108 0 34.7308 0C35.6048 0 36.3408 0.322001 36.9388 0.920001C37.3747 1.35743 37.6714 1.9141 37.7915 2.51986C37.9115 3.12563 37.8496 3.75338 37.6135 4.32401C37.3774 4.89463 36.9776 5.3826 36.4646 5.72641C35.9516 6.07022 35.3484 6.25449 34.7308 6.256C33.874 6.25838 33.0496 5.92863 32.4308 5.336C32.1243 5.06585 31.8795 4.733 31.7128 4.36C31.5462 3.98699 31.4616 3.58253 31.4648 3.174ZM53.8668 57.04C53.8668 56.212 54.1888 55.43 54.8328 54.832C55.3848 54.188 56.1208 53.866 56.9948 53.866C57.8688 53.866 58.6048 54.188 59.2488 54.832C59.8928 55.476 60.2148 56.212 60.2148 57.04C60.2148 57.868 59.8928 58.65 59.2488 59.248C58.6048 59.892 57.8688 60.214 56.9948 60.214C56.1208 60.214 55.3848 59.892 54.8328 59.248C54.5228 58.9708 54.2761 58.6302 54.1094 58.2492C53.9427 57.8682 53.86 57.4558 53.8668 57.04ZM53.8668 12.374C53.8668 11.546 54.1888 10.764 54.8328 10.166C55.3848 9.522 56.1208 9.2 56.9948 9.2C57.8688 9.2 58.6048 9.522 59.2488 10.166C59.8928 10.81 60.2148 11.546 60.2148 12.374C60.2148 13.616 59.8928 13.984 59.2488 14.628C58.6048 15.272 57.8688 15.594 56.9948 15.594C56.1208 15.594 55.3848 15.272 54.8328 14.628C54.5283 14.3367 54.2857 13.9869 54.1197 13.5996C53.9537 13.2123 53.8677 12.7954 53.8668 12.374ZM63.0668 34.776C63.0668 33.902 63.3888 33.12 63.9868 32.476C64.5848 31.832 65.3668 31.51 66.2408 31.51C67.0688 31.51 67.8048 31.832 68.4028 32.476C69.0008 33.12 69.3228 33.856 69.3228 34.776C69.3228 35.604 69.0008 36.34 68.4028 36.938C67.8165 37.5223 67.0225 37.8503 66.1948 37.8503C65.3671 37.8503 64.5731 37.5223 63.9868 36.938C63.6954 36.6584 63.4637 36.3227 63.3055 35.9512C63.1474 35.5796 63.0662 35.1798 63.0668 34.776Z" fill="#1F4F82"/>
</svg>
