<svg width="25" height="44" viewBox="0 0 25 44" fill="none" xmlns="http://www.w3.org/2000/svg">
<path d="M12.4369 43.25C14.8584 43.2504 17.2202 42.4987 19.196 41.0987C21.1718 39.6988 22.6639 37.7197 23.4662 35.435C24.2685 33.1502 24.3414 30.6727 23.6748 28.3448C23.0081 26.0169 21.6348 23.9535 19.7448 22.4399C19.4617 22.2252 19.2307 21.9493 19.0692 21.6329C18.9077 21.3164 18.8197 20.9676 18.8119 20.6124V7.125C18.8119 5.43424 18.1402 3.81274 16.9447 2.61719C15.7491 1.42165 14.1276 0.75 12.4369 0.75C10.7461 0.75 9.12462 1.42165 7.92907 2.61719C6.73353 3.81274 6.06188 5.43424 6.06188 7.125V20.6145C6.06188 21.3327 5.69 21.9915 5.129 22.442C3.23976 23.9559 1.86727 26.0191 1.20114 28.3466C0.534996 30.6742 0.608085 33.1511 1.41031 35.4353C2.21253 37.7195 3.70428 39.6982 5.6795 41.0981C7.65472 42.4979 10.0159 43.2499 12.4369 43.25Z" stroke="white" stroke-width="1.5"/>
<path d="M17.7495 31.5625C17.7495 32.9715 17.1898 34.3227 16.1935 35.319C15.1972 36.3153 13.846 36.875 12.437 36.875C11.028 36.875 9.67679 36.3153 8.68051 35.319C7.68422 34.3227 7.12451 32.9715 7.12451 31.5625C7.12451 30.1535 7.68422 28.8023 8.68051 27.806C9.67679 26.8097 11.028 26.25 12.437 26.25C13.846 26.25 15.1972 26.8097 16.1935 27.806C17.1898 28.8023 17.7495 30.1535 17.7495 31.5625Z" stroke="white" stroke-width="1.5"/>
<path d="M12.437 26.25V7.125" stroke="white" stroke-width="1.5" stroke-linecap="round"/>
</svg>
