<svg width="32" height="29" viewBox="0 0 32 29" fill="none" xmlns="http://www.w3.org/2000/svg">
<path d="M3.45012 28.9999H28.5501C31.1168 28.9999 32.7168 26.2166 31.4335 23.9999L18.8835 2.31655C17.6001 0.0998861 14.4001 0.0998861 13.1168 2.31655L0.566787 23.9999C-0.716546 26.2166 0.883454 28.9999 3.45012 28.9999ZM16.0001 17.3332C15.0835 17.3332 14.3335 16.5832 14.3335 15.6666V12.3332C14.3335 11.4166 15.0835 10.6666 16.0001 10.6666C16.9168 10.6666 17.6668 11.4166 17.6668 12.3332V15.6666C17.6668 16.5832 16.9168 17.3332 16.0001 17.3332ZM17.6668 23.9999H14.3335V20.6666H17.6668V23.9999Z" fill="#B62D2D"/>
</svg>
