<svg width="67" height="49" viewBox="0 0 67 49" fill="none" xmlns="http://www.w3.org/2000/svg">
<path d="M51.7083 44.1042C50.4983 44.1042 49.3378 43.6235 48.4822 42.7678C47.6265 41.9122 47.1458 40.7517 47.1458 39.5417C47.1458 38.3316 47.6265 37.1711 48.4822 36.3155C49.3378 35.4599 50.4983 34.9792 51.7083 34.9792C52.9184 34.9792 54.0789 35.4599 54.9345 36.3155C55.7901 37.1711 56.2708 38.3316 56.2708 39.5417C56.2708 40.7517 55.7901 41.9122 54.9345 42.7678C54.0789 43.6235 52.9184 44.1042 51.7083 44.1042ZM56.2708 16.7292L62.2325 24.3333H48.6667V16.7292M15.2083 44.1042C13.9983 44.1042 12.8378 43.6235 11.9822 42.7678C11.1265 41.9122 10.6458 40.7517 10.6458 39.5417C10.6458 38.3316 11.1265 37.1711 11.9822 36.3155C12.8378 35.4599 13.9983 34.9792 15.2083 34.9792C16.4184 34.9792 17.5789 35.4599 18.4345 36.3155C19.2901 37.1711 19.7708 38.3316 19.7708 39.5417C19.7708 40.7517 19.2901 41.9122 18.4345 42.7678C17.5789 43.6235 16.4184 44.1042 15.2083 44.1042ZM57.7917 12.1667H48.6667V0H6.08333C2.70708 0 0 2.70708 0 6.08333V39.5417H6.08333C6.08333 41.9618 7.04472 44.2827 8.75599 45.994C10.4673 47.7053 12.7882 48.6667 15.2083 48.6667C17.6284 48.6667 19.9494 47.7053 21.6607 45.994C23.372 44.2827 24.3333 41.9618 24.3333 39.5417H42.5833C42.5833 41.9618 43.5447 44.2827 45.256 45.994C46.9673 47.7053 49.2882 48.6667 51.7083 48.6667C54.1284 48.6667 56.4494 47.7053 58.1607 45.994C59.872 44.2827 60.8333 41.9618 60.8333 39.5417H66.9167V24.3333L57.7917 12.1667Z" fill="#1F4F82"/>
</svg>
