<svg width="35" height="28" viewBox="0 0 35 28" fill="none" xmlns="http://www.w3.org/2000/svg">
<path d="M7.95454 25.375C8.58745 25.375 9.19443 25.0984 9.64196 24.6062C10.0895 24.1139 10.3409 23.4462 10.3409 22.75C10.3409 22.0538 10.0895 21.3861 9.64196 20.8938C9.19443 20.4016 8.58745 20.125 7.95454 20.125C7.32164 20.125 6.71466 20.4016 6.26713 20.8938C5.8196 21.3861 5.56818 22.0538 5.56818 22.75C5.56818 23.4462 5.8196 24.1139 6.26713 24.6062C6.71466 25.0984 7.32164 25.375 7.95454 25.375ZM5.56818 9.625L2.45 14H9.54545V9.625M27.0455 25.375C27.6784 25.375 28.2853 25.0984 28.7329 24.6062C29.1804 24.1139 29.4318 23.4462 29.4318 22.75C29.4318 22.0538 29.1804 21.3861 28.7329 20.8938C28.2853 20.4016 27.6784 20.125 27.0455 20.125C26.4126 20.125 25.8056 20.4016 25.358 20.8938C24.9105 21.3861 24.6591 22.0538 24.6591 22.75C24.6591 23.4462 24.9105 24.1139 25.358 24.6062C25.8056 25.0984 26.4126 25.375 27.0455 25.375ZM4.77273 7H9.54545V0H31.8182C33.5841 0 35 1.5575 35 3.5V22.75H31.8182C31.8182 24.1424 31.3153 25.4777 30.4203 26.4623C29.5252 27.4469 28.3113 28 27.0455 28C25.7796 28 24.5657 27.4469 23.6706 26.4623C22.7756 25.4777 22.2727 24.1424 22.2727 22.75H12.7273C12.7273 24.1424 12.2244 25.4777 11.3294 26.4623C10.4343 27.4469 9.22035 28 7.95454 28C6.68874 28 5.47478 27.4469 4.57972 26.4623C3.68466 25.4777 3.18182 24.1424 3.18182 22.75H0V14L4.77273 7Z" fill="#1F4F82"/>
</svg>
