<svg width="39" height="32" viewBox="0 0 39 32" fill="none" xmlns="http://www.w3.org/2000/svg">
<path d="M38.3533 3.66667C36.9417 4.30833 35.42 4.73 33.8433 4.93167C35.4567 3.96 36.7033 2.42 37.29 0.568333C35.7683 1.485 34.0817 2.12667 32.3033 2.49333C30.855 0.916667 28.82 0 26.51 0C22.2017 0 18.6817 3.52 18.6817 7.865C18.6817 8.48833 18.755 9.09333 18.8833 9.66167C12.3567 9.33167 6.545 6.19667 2.67667 1.44833C1.99833 2.60333 1.61333 3.96 1.61333 5.39C1.61333 8.12167 2.98833 10.5417 5.115 11.9167C3.81333 11.9167 2.60333 11.55 1.54 11V11.055C1.54 14.8683 4.25333 18.0583 7.84667 18.7733C6.6932 19.0904 5.48173 19.1343 4.30833 18.9017C4.80628 20.4645 5.78148 21.8321 7.09686 22.812C8.41224 23.792 10.0017 24.3351 11.6417 24.365C8.86173 26.5659 5.41568 27.7556 1.87 27.7383C1.24667 27.7383 0.623333 27.7017 0 27.6283C3.48333 29.865 7.62667 31.1667 12.0633 31.1667C26.51 31.1667 34.4483 19.1767 34.4483 8.78167C34.4483 8.43333 34.4483 8.10333 34.43 7.755C35.97 6.655 37.29 5.26167 38.3533 3.66667Z" fill="white"/>
</svg>
