<svg width="59" height="64" viewBox="0 0 59 64" fill="none" xmlns="http://www.w3.org/2000/svg">
<path d="M52.8986 48H5.32526C4.567 47.9989 3.81771 47.836 3.12736 47.5224C2.437 47.2088 1.82146 46.7515 1.32179 46.1812C0.822119 45.6109 0.449804 44.9406 0.229681 44.215C0.00955731 43.4894 -0.0533141 42.7252 0.0452599 41.9733C0.951927 35.2533 3.72526 30.9333 7.88526 29.7067C8.31193 22.2933 11.1386 0 29.1119 0C47.0853 0 49.9119 22.2933 50.3386 29.7067C54.4453 30.9333 57.2719 35.2533 58.1786 41.9733C58.3919 43.52 57.9119 45.0667 56.8986 46.1867C55.8853 47.3067 54.4453 48 52.8986 48ZM29.1119 64C34.9786 64 39.7786 59.2 39.7786 53.3333H18.4453C18.4453 59.2 23.2453 64 29.1119 64Z" fill="#1F4F82"/>
</svg>
