<svg width="38" height="60" viewBox="0 0 38 60" fill="none" xmlns="http://www.w3.org/2000/svg">
<path d="M8.125 10.8333C8.125 7.96016 9.26637 5.20465 11.298 3.17301C13.3297 1.14137 16.0852 0 18.9583 0C21.8315 0 24.587 1.14137 26.6187 3.17301C28.6503 5.20465 29.7917 7.96016 29.7917 10.8333V25.0656C33.1039 27.372 35.5937 30.6752 36.8985 34.4946C38.2034 38.314 38.2553 42.4501 37.0467 46.301C35.838 50.1519 33.4319 53.5166 30.1786 55.9053C26.9252 58.294 22.9945 59.5822 18.9583 59.5822C14.9222 59.5822 10.9914 58.294 7.73808 55.9053C4.48473 53.5166 2.07864 50.1519 0.869998 46.301C-0.338644 42.4501 -0.286751 38.314 1.01812 34.4946C2.323 30.6752 4.81275 27.372 8.125 25.0656V10.8333ZM11.2233 29.5073C8.85672 31.1542 7.07754 33.5135 6.14481 36.2418C5.21209 38.97 5.1745 41.9247 6.03753 44.6758C6.90056 47.4269 8.61915 49.8307 10.9431 51.5372C13.2671 53.2438 16.0751 54.1641 18.9583 54.1641C21.8416 54.1641 24.6496 53.2438 26.9736 51.5372C29.2975 49.8307 31.0161 47.4269 31.8791 44.6758C32.7422 41.9247 32.7046 38.97 31.7719 36.2418C30.8391 33.5135 29.0599 31.1542 26.6933 29.5073L24.375 27.8904V10.8333C24.375 9.39674 23.8043 8.01899 22.7885 7.00317C21.7727 5.98735 20.3949 5.41667 18.9583 5.41667C17.5217 5.41667 16.144 5.98735 15.1282 7.00317C14.1124 8.01899 13.5417 9.39674 13.5417 10.8333V27.8904L11.2233 29.5073ZM16.25 30.1329V10.8333H21.6667V30.1329C24.2138 30.7984 26.4317 32.3683 27.9061 34.5493C29.3806 36.7304 30.0108 39.3735 29.6791 41.9852C29.3474 44.5969 28.0765 46.9986 26.1037 48.7418C24.1309 50.485 21.591 51.4507 18.9583 51.4583C16.3197 51.4609 13.7708 50.5004 11.7901 48.7571C9.80941 47.0138 8.53305 44.6075 8.20062 41.9899C7.86818 39.3723 8.50252 36.7233 9.98457 34.5402C11.4666 32.3571 13.6945 30.79 16.25 30.1329ZM18.9583 46.0417C20.3949 46.0417 21.7727 45.471 22.7885 44.4552C23.8043 43.4393 24.375 42.0616 24.375 40.625C24.375 39.1884 23.8043 37.8107 22.7885 36.7948C21.7727 35.779 20.3949 35.2083 18.9583 35.2083C17.5217 35.2083 16.144 35.779 15.1282 36.7948C14.1124 37.8107 13.5417 39.1884 13.5417 40.625C13.5417 42.0616 14.1124 43.4393 15.1282 44.4552C16.144 45.471 17.5217 46.0417 18.9583 46.0417Z" fill="#06305D"/>
</svg>
