<svg width="34" height="40" viewBox="0 0 34 40" fill="none" xmlns="http://www.w3.org/2000/svg">
<path d="M32 16.6665C32 28.3332 17 38.3332 17 38.3332C17 38.3332 2 28.3332 2 16.6665C2 12.6883 3.58035 8.87295 6.3934 6.0599C9.20644 3.24686 13.0218 1.6665 17 1.6665C20.9782 1.6665 24.7936 3.24686 27.6066 6.0599C30.4196 8.87295 32 12.6883 32 16.6665Z" stroke="#179C48" stroke-width="4" stroke-linecap="round" stroke-linejoin="round"/>
<path d="M17 21.6665C19.7614 21.6665 22 19.4279 22 16.6665C22 13.9051 19.7614 11.6665 17 11.6665C14.2386 11.6665 12 13.9051 12 16.6665C12 19.4279 14.2386 21.6665 17 21.6665Z" stroke="#179C48" stroke-width="4" stroke-linecap="round" stroke-linejoin="round"/>
</svg>
