<svg width="65" height="64" viewBox="0 0 65 64" fill="none" xmlns="http://www.w3.org/2000/svg">
<path d="M46.9444 49.7778V46.2222H36.1111V35.5556H46.9444V42.6667H54.1667V49.7778H50.5556V56.8889H43.3333V64H36.1111V53.3333H43.3333V49.7778H46.9444ZM65 64H50.5556V56.8889H57.7778V49.7778H65V64ZM0 0H28.8889V28.4444H0V0ZM36.1111 0H65V28.4444H36.1111V0ZM0 35.5556H28.8889V64H0V35.5556ZM54.1667 35.5556H65V42.6667H54.1667V35.5556ZM10.8333 10.6667V17.7778H18.0556V10.6667H10.8333ZM10.8333 46.2222V53.3333H18.0556V46.2222H10.8333ZM46.9444 10.6667V17.7778H54.1667V10.6667H46.9444Z" fill="#1F4F82"/>
</svg>
