<svg width="39" height="32" viewBox="0 0 39 32" fill="none" xmlns="http://www.w3.org/2000/svg">
<path d="M15.6667 24.8333H26.6667M26.6667 24.8333V4.66667C26.6667 3.69421 26.2804 2.76158 25.5927 2.07394C24.9051 1.38631 23.9725 1 23 1H4.66667C3.69421 1 2.76157 1.38631 2.07394 2.07394C1.38631 2.76158 1 3.69421 1 4.66667V23C1 23.4862 1.19315 23.9525 1.53697 24.2964C1.88079 24.6402 2.3471 24.8333 2.83333 24.8333H4.66667M26.6667 24.8333V8.33333H30.3333C32.2783 8.33333 34.1435 9.10595 35.5188 10.4812C36.894 11.8565 37.6667 13.7217 37.6667 15.6667V23C37.6667 23.4862 37.4735 23.9525 37.1297 24.2964C36.7859 24.6402 36.3196 24.8333 35.8333 24.8333M26.6667 24.8333H35.8333M35.8333 24.8333C35.8333 26.292 35.2539 27.691 34.2224 28.7224C33.191 29.7539 31.792 30.3333 30.3333 30.3333C28.8746 30.3333 27.4757 29.7539 26.4442 28.7224C25.4128 27.691 24.8333 26.292 24.8333 24.8333H35.8333ZM37.6667 19.3333H34" stroke="#1F4F82" stroke-width="2" stroke-linecap="round" stroke-linejoin="round"/>
<path d="M10.1666 30.3335C13.2042 30.3335 15.6666 27.8711 15.6666 24.8335C15.6666 21.7959 13.2042 19.3335 10.1666 19.3335C7.12906 19.3335 4.66663 21.7959 4.66663 24.8335C4.66663 27.8711 7.12906 30.3335 10.1666 30.3335Z" stroke="#1F4F82" stroke-width="2" stroke-linecap="round" stroke-linejoin="round"/>
</svg>
