<svg width="37" height="58" viewBox="0 0 37 58" fill="none" xmlns="http://www.w3.org/2000/svg">
<path d="M7.875 10.5C7.875 7.71523 8.98125 5.04451 10.9504 3.07538C12.9195 1.10625 15.5902 0 18.375 0C21.1598 0 23.8305 1.10625 25.7996 3.07538C27.7688 5.04451 28.875 7.71523 28.875 10.5V24.2944C32.0853 26.5298 34.4985 29.7314 35.7632 33.4332C37.0279 37.1351 37.0782 41.1439 35.9068 44.8764C34.7353 48.6088 32.4033 51.8699 29.25 54.1852C26.0968 56.5004 22.2869 57.7489 18.375 57.7489C14.4631 57.7489 10.6532 56.5004 7.49998 54.1852C4.34674 51.8699 2.01468 48.6088 0.843229 44.8764C-0.328224 41.1439 -0.277928 37.1351 0.986797 33.4332C2.25152 29.7314 4.66467 26.5298 7.875 24.2944V10.5ZM10.878 28.5994C8.5842 30.1956 6.85977 32.4823 5.95574 35.1266C5.05171 37.7709 5.01528 40.6347 5.85176 43.3011C6.68823 45.9676 8.35394 48.2974 10.6064 49.9515C12.8588 51.6056 15.5805 52.4975 18.375 52.4975C21.1695 52.4975 23.8912 51.6056 26.1436 49.9515C28.3961 48.2974 30.0618 45.9676 30.8982 43.3011C31.7347 40.6347 31.6983 37.7709 30.7943 35.1266C29.8902 32.4823 28.1658 30.1956 25.872 28.5994L23.625 27.0323V10.5C23.625 9.10761 23.0719 7.77225 22.0873 6.78769C21.1027 5.80312 19.7674 5.25 18.375 5.25C16.9826 5.25 15.6473 5.80312 14.6627 6.78769C13.6781 7.77225 13.125 9.10761 13.125 10.5V27.0323L10.878 28.5994ZM15.75 29.2058V10.5H21V29.2058C23.4688 29.8508 25.6184 31.3723 27.0475 33.4863C28.4765 35.6002 29.0874 38.162 28.7659 40.6933C28.4444 43.2247 27.2126 45.5525 25.3005 47.2421C23.3884 48.9317 20.9266 49.8676 18.375 49.875C15.8176 49.8775 13.3471 48.9466 11.4273 47.2569C9.50758 45.5672 8.2705 43.235 7.94829 40.6979C7.62608 38.1608 8.2409 35.5934 9.67735 33.4774C11.1138 31.3615 13.2731 29.8426 15.75 29.2058ZM18.375 44.625C19.7674 44.625 21.1027 44.0719 22.0873 43.0873C23.0719 42.1027 23.625 40.7674 23.625 39.375C23.625 37.9826 23.0719 36.6473 22.0873 35.6627C21.1027 34.6781 19.7674 34.125 18.375 34.125C16.9826 34.125 15.6473 34.6781 14.6627 35.6627C13.6781 36.6473 13.125 37.9826 13.125 39.375C13.125 40.7674 13.6781 42.1027 14.6627 43.0873C15.6473 44.0719 16.9826 44.625 18.375 44.625Z" fill="white"/>
</svg>
