<svg width="38" height="38" viewBox="0 0 38 38" fill="none" xmlns="http://www.w3.org/2000/svg">
<ellipse cx="19.5587" cy="26.2648" rx="3.91177" ry="3.91176" fill="#F59E0B"/>
<path d="M19.0001 34.8334C20.8044 34.8337 22.5642 34.2736 24.0363 33.2305C25.5084 32.1874 26.6202 30.7128 27.2181 29.0104C27.8159 27.3081 27.8702 25.4621 27.3734 23.7276C26.8767 21.9931 25.8535 20.4557 24.4452 19.3278C24.2343 19.1679 24.0622 18.9623 23.9418 18.7265C23.8215 18.4908 23.7559 18.2308 23.7501 17.9662V7.91675C23.7501 6.65697 23.2497 5.44879 22.3589 4.55799C21.4681 3.66719 20.2599 3.16675 19.0001 3.16675C17.7403 3.16675 16.5321 3.66719 15.6413 4.55799C14.7506 5.44879 14.2501 6.65697 14.2501 7.91675V17.9677C14.2501 18.5029 13.973 18.9937 13.555 19.3294C12.1474 20.4574 11.1247 21.9947 10.6284 23.7289C10.132 25.4632 10.1865 27.3088 10.7842 29.0107C11.382 30.7126 12.4935 32.187 13.9652 33.23C15.4369 34.2731 17.1962 34.8333 19.0001 34.8334Z" stroke="white" stroke-width="1.5"/>
<path d="M22.9584 26.1251C22.9584 27.1749 22.5414 28.1817 21.799 28.924C21.0567 29.6664 20.0499 30.0834 19.0001 30.0834C17.9503 30.0834 16.9434 29.6664 16.2011 28.924C15.4588 28.1817 15.0417 27.1749 15.0417 26.1251C15.0417 25.0753 15.4588 24.0684 16.2011 23.3261C16.9434 22.5838 17.9503 22.1667 19.0001 22.1667C20.0499 22.1667 21.0567 22.5838 21.799 23.3261C22.5414 24.0684 22.9584 25.0753 22.9584 26.1251Z" stroke="white" stroke-width="1.5"/>
<path d="M19 22.1667V7.91675" stroke="white" stroke-width="1.5" stroke-linecap="round"/>
</svg>
