<svg width="35" height="35" viewBox="0 0 35 35" fill="none" xmlns="http://www.w3.org/2000/svg">
<path fill-rule="evenodd" clip-rule="evenodd" d="M15.0125 0.600061C15.7688 0.206954 16.6267 0 17.5 0C18.3733 0 19.2312 0.206954 19.9875 0.600061L32.5125 7.11061C33.2688 7.50371 33.8968 8.0691 34.3334 8.74996C34.7701 9.43082 35 10.2032 35 10.9894V24.0105C35 24.7966 34.7701 25.569 34.3334 26.2498C33.8968 26.9307 33.2688 27.4961 32.5125 27.8892L19.9875 34.3997C19.2312 34.7929 18.3733 34.9998 17.5 34.9998C16.6267 34.9998 15.7688 34.7929 15.0125 34.3997L2.48749 27.8892C1.73122 27.4961 1.1032 26.9307 0.666553 26.2498C0.229908 25.569 2.21845e-05 24.7966 0 24.0105V10.9894C2.21845e-05 10.2032 0.229908 9.43082 0.666553 8.74996C1.1032 8.0691 1.73122 7.50371 2.48749 7.11061L15.0125 0.600061ZM9.57784 11.3136L21.1158 5.32442L25.0978 7.39368L13.5598 13.3829L9.57784 11.3136Z" fill="#9DC1DA"/>
</svg>
