<svg width="20" height="35" viewBox="0 0 20 35" fill="none" xmlns="http://www.w3.org/2000/svg">
<path d="M9.74898 33.4753C11.6135 33.4756 13.4322 32.8968 14.9535 31.8188C16.4749 30.7408 17.6239 29.2169 18.2417 27.4577C18.8594 25.6984 18.9156 23.7907 18.4022 21.9982C17.8889 20.2057 16.8315 18.6169 15.3761 17.4514C15.1581 17.286 14.9803 17.0736 14.8559 16.83C14.7315 16.5863 14.6638 16.3177 14.6578 16.0442V5.6588C14.6578 4.3569 14.1406 3.10833 13.22 2.18775C12.2994 1.26718 11.0509 0.75 9.74898 0.75C8.44709 0.75 7.19851 1.26718 6.27794 2.18775C5.35736 3.10833 4.84018 4.3569 4.84018 5.6588V16.0458C4.84018 16.5989 4.55384 17.1061 4.12186 17.453C2.66714 18.6187 1.61031 20.2074 1.09738 21.9996C0.584446 23.7918 0.640724 25.6991 1.25844 27.4579C1.87616 29.2168 3.02482 30.7404 4.54575 31.8183C6.06668 32.8962 7.88481 33.4752 9.74898 33.4753Z" stroke="#9DC1DA" stroke-width="1.5"/>
<path d="M13.8395 24.4759C13.8395 25.5608 13.4085 26.6013 12.6414 27.3685C11.8743 28.1356 10.8338 28.5666 9.74887 28.5666C8.66395 28.5666 7.62348 28.1356 6.85633 27.3685C6.08918 26.6013 5.6582 25.5608 5.6582 24.4759C5.6582 23.391 6.08918 22.3505 6.85633 21.5834C7.62348 20.8162 8.66395 20.3853 9.74887 20.3853C10.8338 20.3853 11.8743 20.8162 12.6414 21.5834C13.4085 22.3505 13.8395 23.391 13.8395 24.4759Z" stroke="#9DC1DA" stroke-width="1.5"/>
<path d="M9.74902 20.3851V5.65869" stroke="#9DC1DA" stroke-width="1.5" stroke-linecap="round"/>
</svg>
