<svg width="35" height="32" viewBox="0 0 35 32" fill="none" xmlns="http://www.w3.org/2000/svg">
<path d="M3.30368 0H31.6963C32.5725 0 33.4128 0.366627 34.0324 1.01923C34.6519 1.67183 35 2.55694 35 3.47985C35 4.40277 34.6519 5.28788 34.0324 5.94048C33.4128 6.59308 32.5725 6.95971 31.6963 6.95971H3.30368C2.42749 6.95971 1.58718 6.59308 0.967625 5.94048C0.348065 5.28788 9.84573e-08 4.40277 9.84573e-08 3.47985C9.84573e-08 2.55694 0.348065 1.67183 0.967625 1.01923C1.58718 0.366627 2.42749 0 3.30368 0ZM3.30368 12.5195H31.6963C32.1302 12.5195 32.5598 12.6095 32.9606 12.7844C33.3614 12.9592 33.7256 13.2156 34.0324 13.5387C34.3391 13.8618 34.5825 14.2455 34.7485 14.6676C34.9146 15.0898 35 15.5424 35 15.9993C35 16.4563 34.9146 16.9088 34.7485 17.331C34.5825 17.7532 34.3391 18.1368 34.0324 18.46C33.7256 18.7831 33.3614 19.0394 32.9606 19.2143C32.5598 19.3892 32.1302 19.4792 31.6963 19.4792H3.30368C2.86983 19.4792 2.44024 19.3892 2.03942 19.2143C1.63859 19.0394 1.2744 18.7831 0.967625 18.46C0.66085 18.1368 0.417503 17.7532 0.251478 17.331C0.0854522 16.9088 2.88375e-08 16.4563 2.88375e-08 15.9993C2.88375e-08 15.5424 0.0854522 15.0898 0.251478 14.6676C0.417503 14.2455 0.66085 13.8618 0.967625 13.5387C1.2744 13.2156 1.63859 12.9592 2.03942 12.7844C2.44024 12.6095 2.86983 12.5195 3.30368 12.5195ZM3.30368 25.0403H31.6963C32.1302 25.0403 32.5598 25.1303 32.9606 25.3052C33.3614 25.4801 33.7256 25.7364 34.0324 26.0595C34.3391 26.3827 34.5825 26.7663 34.7485 27.1885C34.9146 27.6107 35 28.0632 35 28.5201C35 28.9771 34.9146 29.4296 34.7485 29.8518C34.5825 30.274 34.3391 30.6576 34.0324 30.9808C33.7256 31.3039 33.3614 31.5602 32.9606 31.7351C32.5598 31.91 32.1302 32 31.6963 32H3.30368C2.86983 32 2.44024 31.91 2.03942 31.7351C1.63859 31.5602 1.2744 31.3039 0.967625 30.9808C0.66085 30.6576 0.417503 30.274 0.251478 29.8518C0.0854521 29.4296 0 28.9771 0 28.5201C0 28.0632 0.0854521 27.6107 0.251478 27.1885C0.417503 26.7663 0.66085 26.3827 0.967625 26.0595C1.2744 25.7364 1.63859 25.4801 2.03942 25.3052C2.44024 25.1303 2.86983 25.0403 3.30368 25.0403Z" fill="#9DC1DA"/>
</svg>
