<svg width="19" height="16" viewBox="0 0 19 16" fill="none" xmlns="http://www.w3.org/2000/svg">
<path d="M1.77107 0H16.9921C17.4618 0 17.9123 0.183321 18.2444 0.509634C18.5766 0.835947 18.7632 1.27852 18.7632 1.74C18.7632 2.20148 18.5766 2.64405 18.2444 2.97037C17.9123 3.29668 17.4618 3.48 16.9921 3.48H1.77107C1.30135 3.48 0.850875 3.29668 0.518735 2.97037C0.186595 2.64405 5.2782e-08 2.20148 5.2782e-08 1.74C5.2782e-08 1.27852 0.186595 0.835947 0.518735 0.509634C0.850875 0.183321 1.30135 0 1.77107 0ZM1.77107 6.26H16.9921C17.2247 6.26 17.455 6.30501 17.6699 6.39245C17.8847 6.47989 18.08 6.60806 18.2444 6.76963C18.4089 6.93121 18.5394 7.12302 18.6284 7.33413C18.7174 7.54524 18.7632 7.7715 18.7632 8C18.7632 8.2285 18.7174 8.45476 18.6284 8.66587C18.5394 8.87698 18.4089 9.06879 18.2444 9.23036C18.08 9.39194 17.8847 9.52011 17.6699 9.60755C17.455 9.69499 17.2247 9.74 16.9921 9.74H1.77107C1.53849 9.74 1.30819 9.69499 1.09331 9.60755C0.878436 9.52011 0.683194 9.39194 0.518735 9.23036C0.354276 9.06879 0.223819 8.87698 0.134815 8.66587C0.0458101 8.45476 1.54595e-08 8.2285 1.54595e-08 8C1.54595e-08 7.7715 0.0458101 7.54524 0.134815 7.33413C0.223819 7.12302 0.354276 6.93121 0.518735 6.76963C0.683194 6.60806 0.878436 6.47989 1.09331 6.39245C1.30819 6.30501 1.53849 6.26 1.77107 6.26ZM1.77107 12.5207H16.9921C17.2247 12.5207 17.455 12.5657 17.6699 12.6531C17.8847 12.7406 18.08 12.8687 18.2444 13.0303C18.4089 13.1919 18.5394 13.3837 18.6284 13.5948C18.7174 13.8059 18.7632 14.0322 18.7632 14.2607C18.7632 14.4892 18.7174 14.7154 18.6284 14.9265C18.5394 15.1376 18.4089 15.3295 18.2444 15.491C18.08 15.6526 17.8847 15.7808 17.6699 15.8682C17.455 15.9557 17.2247 16.0007 16.9921 16.0007H1.77107C1.53849 16.0007 1.30819 15.9557 1.09331 15.8682C0.878435 15.7808 0.683194 15.6526 0.518735 15.491C0.354276 15.3295 0.223819 15.1376 0.134815 14.9265C0.0458101 14.7154 0 14.4892 0 14.2607C0 14.0322 0.0458101 13.8059 0.134815 13.5948C0.223819 13.3837 0.354276 13.1919 0.518735 13.0303C0.683194 12.8687 0.878435 12.7406 1.09331 12.6531C1.30819 12.5657 1.53849 12.5207 1.77107 12.5207Z" fill="white"/>
</svg>
