<svg width="33" height="33" viewBox="0 0 33 33" fill="none" xmlns="http://www.w3.org/2000/svg">
<path d="M20.625 5.6941V30.4441C19.8862 30.4443 19.1521 30.3255 18.4511 30.0921L13.75 28.5246V3.67835C14.0204 3.73375 14.2871 3.80538 14.5489 3.89285L19.3201 5.48372C19.741 5.62306 20.1816 5.69501 20.625 5.6941ZM23.375 5.0011L28.4103 3.3236C28.6178 3.24906 28.8402 3.22554 29.0588 3.25502C29.2773 3.28449 29.4856 3.36611 29.666 3.49297C29.8464 3.61984 29.9936 3.78823 30.0953 3.98394C30.1969 4.17965 30.25 4.39694 30.25 4.61748V26.6175C30.2501 26.9116 30.1558 27.198 29.9811 27.4346C29.8064 27.6712 29.5604 27.8455 29.2793 27.932L23.375 29.8996V5.0011ZM11 3.67835V28.5246L4.58975 30.6627C4.38209 30.7373 4.15953 30.7608 3.94087 30.7313C3.72221 30.7017 3.51387 30.62 3.33345 30.493C3.15303 30.3659 3.00583 30.1974 2.90428 30.0015C2.80273 29.8056 2.74981 29.5881 2.75 29.3675V7.36748C2.74994 7.07336 2.8442 6.78697 3.01892 6.55037C3.19365 6.31378 3.43963 6.13945 3.72075 6.05297L10.2011 3.89148C10.4629 3.80447 10.7297 3.7333 11 3.67835Z" fill="white"/>
</svg>
