<svg width="35" height="32" viewBox="0 0 35 32" fill="none" xmlns="http://www.w3.org/2000/svg">
<path d="M3.6746 32H31.3254C34.1529 32 35.9155 28.8579 34.5018 26.3554L20.6764 1.87682C19.2626 -0.625606 15.7374 -0.625606 14.3236 1.87682L0.498249 26.3554C-0.915504 28.8579 0.847097 32 3.6746 32ZM17.5 18.8293C16.4902 18.8293 15.664 17.9827 15.664 16.9478V13.1848C15.664 12.1499 16.4902 11.3032 17.5 11.3032C18.5098 11.3032 19.336 12.1499 19.336 13.1848V16.9478C19.336 17.9827 18.5098 18.8293 17.5 18.8293ZM19.336 26.3554H15.664V22.5924H19.336V26.3554Z" fill="#9DC1DA"/>
</svg>
